<?xml version="1.0" encoding="UTF-8" standalone="no"?>
<svg
   xmlns:dc="http://purl.org/dc/elements/1.1/"
   xmlns:cc="http://creativecommons.org/ns#"
   xmlns:rdf="http://www.w3.org/1999/02/22-rdf-syntax-ns#"
   xmlns:svg="http://www.w3.org/2000/svg"
   xmlns="http://www.w3.org/2000/svg"
   xmlns:sodipodi="http://sodipodi.sourceforge.net/DTD/sodipodi-0.dtd"
   xmlns:inkscape="http://www.inkscape.org/namespaces/inkscape"
   id="9384b02b-49b7-431a-934f-218f90990cfd"
   data-name="Layer 1"
   width="941.51"
   height="824.82"
   viewBox="0 0 941.51 824.82"
   version="1.1"
   sodipodi:docname="undraw_businesswoman_pc12.svg"
   inkscape:version="0.92.4 (33fec40, 2019-01-16)">
  <metadata
     id="metadata264">
    <rdf:RDF>
      <cc:Work
         rdf:about="">
        <dc:format>image/svg+xml</dc:format>
        <dc:type
           rdf:resource="http://purl.org/dc/dcmitype/StillImage" />
      </cc:Work>
    </rdf:RDF>
  </metadata>
  <sodipodi:namedview
     pagecolor="#ffffff"
     bordercolor="#666666"
     borderopacity="1"
     objecttolerance="10"
     gridtolerance="10"
     guidetolerance="10"
     inkscape:pageopacity="0"
     inkscape:pageshadow="2"
     inkscape:window-width="1920"
     inkscape:window-height="1025"
     id="namedview262"
     showgrid="false"
     inkscape:zoom="1.1444921"
     inkscape:cx="317.43667"
     inkscape:cy="462.29649"
     inkscape:window-x="0"
     inkscape:window-y="27"
     inkscape:window-maximized="1"
     inkscape:current-layer="9384b02b-49b7-431a-934f-218f90990cfd" />
  <defs
     id="defs9">
    <linearGradient
       id="b0d57a94-2a20-4bb1-ba9f-a5b1ad7b8bc7"
       x1="432.56"
       y1="817.82"
       x2="432.56"
       y2="166.66"
       gradientUnits="userSpaceOnUse">
      <stop
         offset="0"
         stop-color="gray"
         stop-opacity="0.25"
         id="stop2" />
      <stop
         offset="0.54"
         stop-color="gray"
         stop-opacity="0.12"
         id="stop4" />
      <stop
         offset="1"
         stop-color="gray"
         stop-opacity="0.1"
         id="stop6" />
    </linearGradient>
  </defs>
  <title
     id="title11">businesswoman</title>
  <ellipse
     cx="482.08"
     cy="798.12"
     rx="42.38"
     ry="356.13"
     transform="translate(-503.7 1128.97) rotate(-82.14)"
     fill="#1c3ed3"
     opacity="0.1"
     id="ellipse13" />
  <path
     d="M149.6,606.48c6.41,15.45,14.82,30.26,26.59,41.62,14.34,13.84,32.15,21.39,51.22,25a154.27,154.27,0,0,0,17,2.2c15.07,1.16,30.5.39,45.3-1.22a535.59,535.59,0,0,0,106.7-22.83q8.55-2.76,17-5.81,12.75-4.57,25.27-9.81c34-14.21,69.15-32.33,105.32-26.71,17.53,2.73,34,11,51.57,13.46a92.21,92.21,0,0,0,36.84-2.62,126.59,126.59,0,0,0,17-5.87,193.44,193.44,0,0,0,35.32-20c26.5-18.52,50.28-41.48,78.18-57.52,30.76-17.69,64.81-26.1,99.5-32.37q8.48-1.53,17-2.92c16.05-2.65,32.14-5.1,48-8,15.28-2.82,30.83-6.27,44.13-14.75,9.49-6,17.47-14.43,24.79-23.26a277.49,277.49,0,0,0,34.52-53.22q.75-1.5,1.47-3c14.69-30.14,24.57-63,30.63-97,.18-1,.35-2,.52-3,5.7-33.33,7.78-67.79,7.15-102l-.06-3c-.39-16.89-1.44-33.71-3-50.29-1.12-11.66-2.62-23.76-8.66-33.56s-15.87-16.1-25.71-21.34c-43.3-23.07-84.81-29.49-131.39-18.31-7.48,1.79-14.93,3.72-22.38,5.72-5.67,1.52-11.34,3.09-17,4.67-39.13,10.91-78.16,22.52-118.61,26q-5.87.51-11.73.78-11.61.54-23.22.24a401.19,401.19,0,0,1-59.44-6.12q-8.52-1.47-17-3.26C608,93.29,583.83,86.5,560,79q-7.29-2.3-14.56-4.68c-10.92-3.57-21.84-7.21-32.78-10.75C480,53,447.18,43.31,413.41,39.41q-4.34-.49-8.68-.87c-2.77-.24-5.55-.43-8.32-.57-52.45-2.8-105.5,9.85-152,35.74q-8.66,4.82-17,10.24-11.57,7.53-22.43,16.2c-14.84,11.85-28.73,25.34-39.31,41.55-10.31,15.79-17,33.52-20.85,52.16-.21,1-.41,2-.59,3-5.65,30.09-3.89,62.36,2.45,92.51.67,3.16,1.38,6.33,2.12,9.49.23,1,.47,2,.71,3,6.84,28.51,15.58,56.94,13.3,86.09-.29,3.67-.75,7.31-1.35,10.91-.17,1-.34,2-.53,3-4.46,23.78-14.6,46.34-20.68,69.89A215.32,215.32,0,0,0,149.6,606.48Z"
     transform="translate(-129.25 -37.59)"
     fill="#1c3ed3"
     opacity="0.1"
     id="path15" />
  <path
     d="M227.41,298.86H148.8c.23,1,.47,2,.71,3h77.9v97H161.46c-.17,1-.34,2-.53,3h66.48V673.09a154.27,154.27,0,0,0,17,2.2V401.86h152V651.24q8.55-2.76,17-5.81V401.86h219V619.75a126.59,126.59,0,0,0,17-5.87v-212h213V504q8.48-1.53,17-2.92V401.86h151.46q.75-1.5,1.47-3H879.41v-97H1063c.18-1,.35-2,.52-3H879.41v-102h191.23l-.06-3H879.41V76.08c-5.67,1.52-11.34,3.09-17,4.67V193.86h-208l-.52-.57,78.16-85.77q-11.61.54-23.22.24L649.41,173V101.64q-8.52-1.47-17-3.26V169.7L545.48,74.31c-10.92-3.57-21.84-7.21-32.78-10.75L630.91,193.29l-.52.57h-217V39.41q-4.34-.49-8.68-.87c-2.77-.24-5.55-.43-8.32-.57V193.86h-152V73.71q-8.66,4.82-17,10.24V193.86H144.82c-.21,1-.41,2-.59,3h83.18Zm169-102v102h-152v-102Zm17,0h219v102h-219Zm449,102h-213V199.59l3-2.73h210Zm-213,100v-97h213v97Zm-236,0v-97h219v97Zm-169-97h152v97h-152Z"
     transform="translate(-129.25 -37.59)"
     fill="#1c3ed3"
     opacity="0.1"
     id="path17" />
  <path
     d="M667.19,225a12.9,12.9,0,0,1,4.38-2.49,29.44,29.44,0,0,1,11.14-1.21,49,49,0,0,1,8.17,1.14L816.52,258c2.37.67,4.7,1.46,7,2.34,8.1-3.17,31-12.35,33.51-15.63l9.84,2.88-16.42,24.51h0a2.25,2.25,0,0,1-.16,4.18c-18.93,6.51-47.52-2.12-47.52-2.12L693,242.8S659.83,231.6,667.19,225Z"
     transform="translate(-129.25 -37.59)"
     fill="#1c3ed3"
     opacity="0.1"
     id="path19" />
  <ellipse
     cx="812.37"
     cy="264.25"
     rx="1.6"
     ry="0.96"
     transform="translate(178.1 915.67) rotate(-71.78)"
     fill="#1c3ed3"
     opacity="0.1"
     id="ellipse21" />
  <ellipse
     cx="808.56"
     cy="263"
     rx="1.6"
     ry="0.96"
     transform="translate(176.68 911.19) rotate(-71.78)"
     fill="#1c3ed3"
     opacity="0.1"
     id="ellipse23" />
  <ellipse
     cx="801.25"
     cy="260.59"
     rx="1.6"
     ry="0.96"
     transform="translate(173.94 902.59) rotate(-71.78)"
     fill="#1c3ed3"
     opacity="0.1"
     id="ellipse25" />
  <ellipse
     cx="780.64"
     cy="254.54"
     rx="1.6"
     ry="0.96"
     transform="translate(165.52 878.85) rotate(-71.78)"
     fill="#1c3ed3"
     opacity="0.1"
     id="ellipse27" />
  <ellipse
     cx="777.01"
     cy="253.34"
     rx="1.6"
     ry="0.96"
     transform="translate(164.16 874.59) rotate(-71.78)"
     fill="#1c3ed3"
     opacity="0.1"
     id="ellipse29" />
  <ellipse
     cx="773.25"
     cy="252.46"
     rx="1.6"
     ry="0.96"
     transform="translate(162.42 870.41) rotate(-71.78)"
     fill="#1c3ed3"
     opacity="0.1"
     id="ellipse31" />
  <ellipse
     cx="769.47"
     cy="251.22"
     rx="1.6"
     ry="0.96"
     transform="translate(161 865.97) rotate(-71.78)"
     fill="#1c3ed3"
     opacity="0.1"
     id="ellipse33" />
  <ellipse
     cx="765.77"
     cy="250"
     rx="1.6"
     ry="0.96"
     transform="translate(159.61 861.61) rotate(-71.78)"
     fill="#1c3ed3"
     opacity="0.1"
     id="ellipse35" />
  <ellipse
     cx="762.4"
     cy="248.89"
     rx="1.6"
     ry="0.96"
     transform="translate(158.35 857.65) rotate(-71.78)"
     fill="#1c3ed3"
     opacity="0.1"
     id="ellipse37" />
  <ellipse
     cx="758.8"
     cy="247.7"
     rx="1.6"
     ry="0.96"
     transform="translate(157 853.41) rotate(-71.78)"
     fill="#1c3ed3"
     opacity="0.1"
     id="ellipse39" />
  <ellipse
     cx="755.02"
     cy="246.46"
     rx="1.6"
     ry="0.96"
     transform="translate(155.59 848.97) rotate(-71.78)"
     fill="#1c3ed3"
     opacity="0.1"
     id="ellipse41" />
  <ellipse
     cx="751.68"
     cy="245.36"
     rx="1.6"
     ry="0.96"
     transform="translate(154.33 845.04) rotate(-71.78)"
     fill="#1c3ed3"
     opacity="0.1"
     id="ellipse43" />
  <ellipse
     cx="732.91"
     cy="240.51"
     rx="1.6"
     ry="0.96"
     transform="matrix(0.31, -0.95, 0.95, 0.31, 146.04, 823.88)"
     fill="#1c3ed3"
     opacity="0.1"
     id="ellipse45" />
  <ellipse
     cx="725.61"
     cy="238.11"
     rx="1.6"
     ry="0.96"
     transform="translate(143.31 815.29) rotate(-71.78)"
     fill="#1c3ed3"
     opacity="0.1"
     id="ellipse47" />
  <ellipse
     cx="721.93"
     cy="236.9"
     rx="1.6"
     ry="0.96"
     transform="translate(141.93 810.96) rotate(-71.78)"
     fill="#1c3ed3"
     opacity="0.1"
     id="ellipse49" />
  <ellipse
     cx="718.37"
     cy="235.72"
     rx="1.6"
     ry="0.96"
     transform="translate(140.6 806.78) rotate(-71.78)"
     fill="#1c3ed3"
     opacity="0.1"
     id="ellipse51" />
  <ellipse
     cx="714.86"
     cy="234.57"
     rx="1.6"
     ry="0.96"
     transform="translate(139.28 802.65) rotate(-71.78)"
     fill="#1c3ed3"
     opacity="0.1"
     id="ellipse53" />
  <ellipse
     cx="710.9"
     cy="233.26"
     rx="1.6"
     ry="0.96"
     transform="translate(137.8 797.98) rotate(-71.78)"
     fill="#1c3ed3"
     opacity="0.1"
     id="ellipse55" />
  <ellipse
     cx="729.14"
     cy="239.27"
     rx="1.6"
     ry="0.96"
     transform="translate(144.63 819.44) rotate(-71.78)"
     fill="#1c3ed3"
     opacity="0.1"
     id="ellipse57" />
  <ellipse
     cx="804.62"
     cy="261.7"
     rx="1.6"
     ry="0.96"
     transform="translate(175.2 906.55) rotate(-71.78)"
     fill="#1c3ed3"
     opacity="0.1"
     id="ellipse59" />
  <rect
     x="744.05"
     y="242.28"
     width="3.54"
     height="6.17"
     transform="translate(1281.86 624.71) rotate(-166.13)"
     fill="#1c3ed3"
     opacity="0.1"
     id="rect61" />
  <rect
     x="703.55"
     y="230.67"
     width="3.54"
     height="6.17"
     transform="translate(1204.83 592.14) rotate(-166.13)"
     fill="#1c3ed3"
     opacity="0.1"
     id="rect63" />
  <polygon
     points="557.55 185.21 562.12 186.41 559.84 189.85 553.07 188.17 557.55 185.21"
     fill="#1c3ed3"
     opacity="0.1"
     id="polygon65" />
  <path
     d="M671.57,222.55l9.87,2.57,3.76-2.32-2.49-1.46A29.44,29.44,0,0,0,671.57,222.55Z"
     transform="translate(-129.25 -37.59)"
     fill="#1c3ed3"
     opacity="0.1"
     id="path67" />
  <path
     d="M866.87,247.53l-16.42,24.59-26.82-11.89S854,248.65,857,244.65Z"
     transform="translate(-129.25 -37.59)"
     fill="#1c3ed3"
     opacity="0.1"
     id="path69" />
  <polygon
     points="618.51 213.63 661.84 225.33 664.4 230.45 618.51 213.63"
     fill="#1c3ed3"
     opacity="0.1"
     id="polygon71" />
  <path
     d="M317.5,126.62h1.31a3.24,3.24,0,0,1-1.6-2.62h0c0-2.06,2.53-3.75,5.62-3.75h39.42c3.09,0,5.62,1.69,5.62,3.75h0c0,2.07-2.53,3.76-5.62,3.76h-1.32a3.27,3.27,0,0,1,1.61,2.62c0,1.76-1.84,3.25-4.31,3.65h11.35c3.09,0,5.63,1.69,5.63,3.75s-2.54,3.76-5.63,3.76H330.16c-3.09,0-5.62-1.69-5.62-3.76,0-1.76,1.84-3.24,4.3-3.64H317.5c-3.1,0-5.63-1.69-5.63-3.76S314.4,126.62,317.5,126.62Z"
     transform="translate(-129.25 -37.59)"
     fill="#1c3ed3"
     opacity="0.1"
     id="path73" />
  <path
     d="M744.66,162.39H746a3.26,3.26,0,0,1-1.6-2.62h0c0-2.07,2.53-3.76,5.62-3.76h39.42c3.09,0,5.62,1.69,5.62,3.76h0c0,2.06-2.53,3.75-5.62,3.75h-1.32a3.28,3.28,0,0,1,1.61,2.62c0,1.77-1.84,3.25-4.3,3.65h11.34c3.1,0,5.63,1.69,5.63,3.76s-2.53,3.75-5.63,3.75H757.33c-3.1,0-5.63-1.69-5.63-3.75,0-1.76,1.84-3.25,4.3-3.65H744.66c-3.1,0-5.63-1.69-5.63-3.76S741.56,162.39,744.66,162.39Z"
     transform="translate(-129.25 -37.59)"
     fill="#1c3ed3"
     opacity="0.1"
     id="path75" />
  <path
     d="M257,315.45h1.32a3.26,3.26,0,0,1-1.61-2.62h0c0-2.07,2.53-3.76,5.62-3.76h39.42c3.09,0,5.62,1.69,5.62,3.76h0c0,2.06-2.53,3.75-5.62,3.75h-1.32a3.26,3.26,0,0,1,1.61,2.62c0,1.76-1.84,3.25-4.3,3.65h11.34c3.1,0,5.63,1.69,5.63,3.76s-2.53,3.75-5.63,3.75H269.71c-3.1,0-5.63-1.69-5.63-3.75,0-1.77,1.84-3.25,4.31-3.65H257c-3.09,0-5.63-1.69-5.63-3.76S254,315.45,257,315.45Z"
     transform="translate(-129.25 -37.59)"
     fill="#1c3ed3"
     opacity="0.1"
     id="path77" />
  <path
     d="M626.22,254.65s-30.53.32-25.33,17.23l11.65,6.76,11.61-2.36,5.45-9.63Z"
     transform="translate(-129.25 -37.59)"
     fill="#65617d"
     id="path81" />
  <path
     d="M626.22,254.65s-30.53.32-25.33,17.23l11.65,6.76,11.61-2.36,5.45-9.63Z"
     transform="translate(-129.25 -37.59)"
     opacity="0.1"
     id="path83" />
  <path
     d="M559.72,225.18c8.37,30.44,28.78,27.47,28.78,27.47l13.09,15.85,1.93,2.46,4.18,5.32,18.52-10.52-3.69-4.34L600.89,236S551.35,194.75,559.72,225.18Z"
     transform="translate(-129.25 -37.59)"
     fill="#fbbebe"
     id="path85" />
  <rect
     x="556.64"
     y="231.36"
     width="0.56"
     height="4.65"
     rx="0.28"
     ry="0.28"
     transform="translate(1019.14 73.86) rotate(145.56)"
     fill="#3a3768"
     id="rect87" />
  <rect
     x="569.39"
     y="217.96"
     width="0.32"
     height="1.53"
     rx="0.16"
     ry="0.16"
     transform="translate(1033.71 39.44) rotate(145.56)"
     fill="#3a3768"
     id="rect89" />
  <rect
     x="571.26"
     y="220.17"
     width="0.36"
     height="2.66"
     rx="0.18"
     ry="0.18"
     transform="matrix(-0.82, 0.57, -0.57, -0.82, 1038.75, 43.43)"
     fill="#3a3768"
     id="rect91" />
  <rect
     x="573.32"
     y="223.14"
     width="0.34"
     height="2.69"
     rx="0.17"
     ry="0.17"
     transform="translate(1044.16 47.7) rotate(145.56)"
     fill="#3a3768"
     id="rect93" />
  <rect
     x="559.86"
     y="215.91"
     width="18.87"
     height="38.36"
     rx="2.24"
     ry="2.24"
     transform="translate(1042.51 69.42) rotate(145.56)"
     fill="#3a3768"
     id="rect95" />
  <path
     d="M554.65,223.08a.68.68,0,0,1,.94.18l.08.11a.68.68,0,0,0,.94.18l6.61-4.53a.68.68,0,0,0,.17-.94l-.08-.11a.68.68,0,0,1,.18-.94l1.28-.89a1.3,1.3,0,0,1,1.8.34l19.1,27.86a1.29,1.29,0,0,1-.34,1.79L573.82,254a1.29,1.29,0,0,1-1.79-.34l-19.11-27.86a1.29,1.29,0,0,1,.34-1.79Z"
     transform="translate(-129.25 -37.59)"
     fill="#1c3ed3"
     id="path97" />
  <rect
     x="558.35"
     y="219.88"
     width="2.64"
     height="0.54"
     rx="0.27"
     ry="0.27"
     transform="translate(1016.49 47.61) rotate(145.56)"
     fill="#e6e8ec"
     id="rect99" />
  <circle
     cx="428.75"
     cy="183.7"
     r="0.3"
     fill="#e6e8ec"
     id="circle101" />
  <path
     d="M503.3,662.06c0,.6.09,1.18.14,1.76,1,10.86,3.95,15.66,3.95,15.66s3.43,44,4.07,55.18c.41,7-1.3,11.72-2.63,14.27a12.7,12.7,0,0,1-1.44,2.27l-2.15,4.72,10.09,20.18,11.81,19.54,8.16,10.73s6,.86,7.3,0,6.43,0,6.43,0l4.73-7.3-5.3-7.17-2-2.7c-1.72-14.39-7.2-33.93-7.2-33.93V725.86s2.48-67.41.76-78.8a60.28,60.28,0,0,1,0-19.53s7.51-21.26,6-23.62,3.22-10.74,3.22-10.74l9-25.41.52-1.49-2-4.87L506.1,555s.4,4,.84,10.35v.14c.26,3.68.52,8.16.73,13.16.7,16.82.76,39.4-2.43,56.65A108.44,108.44,0,0,0,503.3,662.06Z"
     transform="translate(-129.25 -37.59)"
     fill="#fbbebe"
     id="path103" />
  <path
     d="M503.44,663.82l2.66-4.09a89.9,89.9,0,0,1,16.31-12.45c9.24-5.37,11.38-18,11-19.75s1.29-18,1.29-18V568.27l-27.71-3c1.1,16.07,2.45,47.51-1.7,70C503,647.47,502.81,656.88,503.44,663.82Z"
     transform="translate(-129.25 -37.59)"
     opacity="0.1"
     id="path105" />
  <path
     d="M417,766.87l2.15,19.75,10.51,6.22s9.67,1.08,7.95-7.51a12.59,12.59,0,0,1-.16-2.79c.43-10.49,9.82-32.63,9.82-32.63s9-23.83,16.53-31.14c6.56-6.36,32.89-46.56,39.5-56.71l1.51-2.33a90.19,90.19,0,0,1,16.32-12.45c9.23-5.37,11.38-18,11-19.75s1.28-18,1.28-18V568.27l-26.42-2.82-23.82-2.55s.53,4.66,1.21,10.59c1.15,9.8,2.77,23.07,3.3,24.41.87,2.15,2.8,15,2.8,15s-1.51,5.79-2.58,11.16-15,20.19-15,20.19c-17.82,14.81-35.64,67.19-35.64,67.19-4.69,10.14-10,11.86-12.76,12a5.45,5.45,0,0,1-1.84-.17l-3.87,7.09Z"
     transform="translate(-129.25 -37.59)"
     fill="#fbbebe"
     id="path107" />
  <path
     d="M505.24,755.92l10.09,20.18,11.81,19.54,8.16,10.73s6,.86,7.3,0,6.43,0,6.43,0l4.73-7.3-5.3-7.17c1.39,3.2,2.53,7.19-.28,7.38-4.72.33-14.49,4.3-20.07-9.12s-13-19.43-13-19.43l-5.91-14.38-.38-7.42a12.7,12.7,0,0,1-1.44,2.27Z"
     transform="translate(-129.25 -37.59)"
     opacity="0.1"
     id="path109" />
  <path
     d="M504.49,773.09s8.8,21.9,8.48,28.24h5.15l-.86-19.12.08.11c.94,1.25,10.14,13.65,10.45,19.86,0,0,2.33,6.38,2.26,8.13a.61.61,0,0,1,0,.14c-.22,1.5,8.15,8.59,20.29,7.19s14.27-3.11,14.27-3.11.14-.39.32-1c.6-2.3,1.57-7.9-2.46-10.67-5.05-3.48-15.58-13.24-16-13.61.27.48,6.32,11,1.7,11.35s-14.49,4.3-20.07-9.12-13-19.43-13-19.43l-5.91-14.38-.44-8.59s-6.86,3.54-7.5,10.52S504.49,773.09,504.49,773.09Z"
     transform="translate(-129.25 -37.59)"
     fill="#3f3d56"
     id="path111" />
  <path
     d="M511.9,781.89c.61,5.14,2.12,14.6,2.9,19.44h3.32l-.86-19.12.08.11-.29-.85S511,774.81,511.9,781.89Z"
     transform="translate(-129.25 -37.59)"
     opacity="0.1"
     id="path113" />
  <path
     d="M530,810.45c-.22,1.5,8.15,8.59,20.29,7.19s14.27-3.11,14.27-3.11.14-.39.32-1c-7.56.09-27.74,0-34.87-3.19A.61.61,0,0,1,530,810.45Z"
     transform="translate(-129.25 -37.59)"
     opacity="0.1"
     id="path115" />
  <path
     d="M417,766.87l2.15,19.75,10.51,6.22s9.67,1.08,7.95-7.51a12.59,12.59,0,0,1-.16-2.79c-16.23,6-17.87-9.88-17.87-9.88l2.9-43.26a9.46,9.46,0,0,1,1.94-5.95,5.45,5.45,0,0,1-1.84-.17l-3.87,7.09Z"
     transform="translate(-129.25 -37.59)"
     opacity="0.1"
     id="path117" />
  <path
     d="M394.56,761.39l3.07,2.2,1.44,1,12.35-14.38s0,16.42-2.26,20.39c-1.53,2.7-1.77,7.65-1.77,10.55,0,1.36.05,2.27.05,2.27s3.76,8,20.29,17.89c7.42,4.43,11.75,3.67,14.26,1.49,3.09-2.68,3.45-7.5,3.45-7.5l-7-11.88c-17.18,7-18.89-9.49-18.89-9.49l2.9-43.26c.21-6.55,4.36-7.71,4.36-7.71-19.25-.74-20.14,15-20.14,15Z"
     transform="translate(-129.25 -37.59)"
     fill="#3f3d56"
     id="path119" />
  <polygon
     points="268.39 726 269.82 727.02 282.17 712.64 280.77 708.45 268.39 726"
     opacity="0.1"
     id="polygon121" />
  <path
     d="M407.39,781.17c0,1.36.05,2.27.05,2.27s3.76,8,20.29,17.89c7.42,4.43,11.75,3.67,14.26,1.49C434.46,800.49,416.5,793.87,407.39,781.17Z"
     transform="translate(-129.25 -37.59)"
     opacity="0.1"
     id="path123" />
  <path
     d="M437,546.91c9.55,3.29,15.28-17.37,18-30.85,1.26-6.29,1.85-11,1.85-11H439.27s-1,2.37-2.37,6C433,521.72,426.55,543.3,437,546.91Z"
     transform="translate(-129.25 -37.59)"
     fill="#fbbebe"
     id="path125" />
  <path
     d="M514.68,268.13l12,29.19v25.12c0,.65,29.84,9,29.84,9l7.73-19.32s2.36-22.76-6.22-41.66a28.11,28.11,0,0,1-1.17-19.57q.21-.76.45-1.5a49.28,49.28,0,0,1,9.52-16.5s-20.47-6.79-34.53-8.17c-8.85-.86-15.18.42-12.27,6.88a28.63,28.63,0,0,1,2.32,13c0,.4,0,.81-.08,1.21C521.39,257.85,514.68,268.13,514.68,268.13Z"
     transform="translate(-129.25 -37.59)"
     fill="#fbbebe"
     id="path127" />
  <path
     d="M520.06,231.62a28.63,28.63,0,0,1,2.32,13c0,.4,0,.81-.08,1.21a.27.27,0,0,0,.08.07,31.7,31.7,0,0,0,18.21,7.91c.93.09,1.88.13,2.83.13a31.25,31.25,0,0,0,13.47-3q.21-.76.45-1.5a49.28,49.28,0,0,1,9.52-16.5s-20.47-6.79-34.53-8.17C523.48,223.88,517.15,225.16,520.06,231.62Z"
     transform="translate(-129.25 -37.59)"
     opacity="0.1"
     id="path129" />
  <path
     d="M510.67,218.3a35,35,0,0,0,11.71,26.32,31.75,31.75,0,0,0,18.21,7.9c.93.09,1.88.13,2.83.13a31.38,31.38,0,0,0,13.92-3.24,34.51,34.51,0,0,0,18.84-31.11,35.3,35.3,0,0,0-6.39-20.39,32.24,32.24,0,0,0-26.37-14C525.34,183.94,510.67,199.32,510.67,218.3Z"
     transform="translate(-129.25 -37.59)"
     fill="#fbbebe"
     id="path131" />
  <path
     d="M555.48,329.31s-20-18.25-25.55-34.78a183.18,183.18,0,0,0-13.31-29.84l1.48-3.09s8.18,21.77,14.19,24.34,20,17.39,21.26,27.7l.86-31.35,1.35-20.69s10.24,21.77,11.1,31.86-.22,28.34-3.44,32.2A10.49,10.49,0,0,1,555.48,329.31Z"
     transform="translate(-129.25 -37.59)"
     fill="#1c3ed3"
     id="path133" />
  <path
     d="M513.62,261l.14-.13-.14.13Z"
     transform="translate(-129.25 -37.59)"
     fill="none"
     stroke="aqua"
     stroke-miterlimit="10"
     id="path135" />
  <path
     d="M483.12,562.9s.53,4.66,1.21,10.59c7.08,3.56,15.15,5,23.34,5.12a108.3,108.3,0,0,0,25.69-3.06,189.11,189.11,0,0,0,24.92-7.79l.52-1.49-2-4.87L506.1,555s.4,4,.84,10.35v.14Z"
     transform="translate(-129.25 -37.59)"
     opacity="0.1"
     id="path137" />
  <path
     d="M474.54,536.6c.14.32.29.7.43,1.11,2.69,7.9,4.72,31.74,4.72,31.74,28.34,19.65,78.9-3.54,81.89-4.19s0-5.47,0-5.47,9.57-40.9,8.61-48.31,2.25-37.84,2.25-37.84L574,461l4.29-35.87-32.85-7.08s-40.19,4.08-53,8.85a17.76,17.76,0,0,0-1.75.74c-3.93,1.94-7.44,8.35-10.27,15.55-1.73,4.37-3.2,9-4.38,13.16a84.85,84.85,0,0,0-3.22,22.12C472.54,496.16,472.37,531.78,474.54,536.6Z"
     transform="translate(-129.25 -37.59)"
     fill="#3f3d56"
     id="path139" />
  <path
     d="M474.54,536.6c.14.32.29.7.43,1.11,1.84-12.74,3.58-51.13,3.22-63.69-.43-15,15.46-46.81,15.46-46.81l-1.26-.27a17.76,17.76,0,0,0-1.75.74c-6.32,3.12-11.54,17.81-14.64,28.71a84.86,84.86,0,0,0-3.23,22.12C472.54,496.16,472.37,531.79,474.54,536.6Z"
     transform="translate(-129.25 -37.59)"
     opacity="0.1"
     id="path141" />
  <path
     d="M480.37,443.23c.82.54,17.44,11.24,45.37,23.17,28.67,12.23,31.78-37.47,31.78-37.47A51.37,51.37,0,0,1,563,442.78c1.59,6.35,7.83,14.47,11,18.26l4.29-35.87-32.85-7.08s-40.19,4.08-53,8.85a17.76,17.76,0,0,0-1.75.74C486.71,429.62,483.2,436,480.37,443.23Z"
     transform="translate(-129.25 -37.59)"
     opacity="0.1"
     id="path143" />
  <path
     d="M463.8,336c1.93,4.29,0,8.91,0,8.91s28.45,24.58,29.85,20.39,2,7.09,2,7.09,2.8,2.9,2.16,4.4.53,10.09.53,10.09,1.5,5.15.43,6.23-2.68,10-2.68,10l-3.84,14.26-.67.56c-6,4.93-6.77,13.52-8.49,15.67s-2.78,8.37-2.78,8.37,16.74,10.95,45.4,23.19,31.78-37.47,31.78-37.47A51.37,51.37,0,0,1,563,441.49c2.15,8.59,12.78,20.4,12.78,20.4,10.31-1.72,19.1-29.95,16.85-31.56S584,408.11,584,408.11c-10.09-14.06-1-43.27-1-43.27s9.23-23.51,9.12-27.37,2.15-4,2.15-4l6.55-44.87s-9-3.76-9.77-6.88-13.64-6.54-13.64-6.54.87-1.29-4.61-3.12a20.19,20.19,0,0,1-5.3-3.24,124.33,124.33,0,0,1-11.85-11s-.55,12.78,2.12,20.17,4.62,29.22,4.83,30.83-7.73,18.46-7.73,18.46l-4.21-5.77c-6.64-9.08-18.87-25.76-19.72-26.54-1.19-1.07-11.48-29.78-12.91-33.36-.53-1.31-1.27-1.73-2-1.74a3,3,0,0,0-1.61.52h0a5.5,5.5,0,0,0-.71.52l-.25.69-.06.14a15.28,15.28,0,0,1-.76,1.72,0,0,0,0,0,0,0h0C505.74,277,480,286.69,480,286.69c-8.26,2.9-9.66,8.77-9.66,8.77s1.5,5.19-1.82,7.77-1.93,9.66-1.93,9.66-4.51,10.2-3.35,11.7a27.57,27.57,0,0,1,2.38,4.08S461.87,331.67,463.8,336Z"
     transform="translate(-129.25 -37.59)"
     fill="#65617d"
     id="path145" />
  <path
     d="M547.21,341.87s43.91,6.87,41.87-12c-1.86-17.21-18-53.41-20.86-59.71a125,125,0,0,1-11.86-11s-.54,12.78,2.12,20.17,4.62,29.21,4.83,30.82-7.73,18.47-7.73,18.47Z"
     transform="translate(-129.25 -37.59)"
     opacity="0.1"
     id="path147" />
  <path
     d="M545.92,340.59s43.91,6.86,41.87-12c-1.86-17.21-18-53.41-20.86-59.71a124.33,124.33,0,0,1-11.85-11s-.55,12.78,2.11,20.17,4.62,29.22,4.84,30.83-7.73,18.46-7.73,18.46Z"
     transform="translate(-129.25 -37.59)"
     opacity="0.1"
     id="path149" />
  <path
     d="M546.57,340.59s43.9,6.86,41.86-12c-1.85-17.21-18-53.41-20.86-59.71a124.33,124.33,0,0,1-11.85-11s-.55,12.78,2.12,20.17,4.62,29.22,4.83,30.83-7.73,18.46-7.73,18.46Z"
     transform="translate(-129.25 -37.59)"
     fill="#65617d"
     id="path151" />
  <path
     d="M511.39,264.76h0c0,.13.07,2,.16,4.88.17,5.56.44,15,.58,23.89.16,10.3.16,19.78-.34,21.4-1.18,3.76,4.61,13.1,4.61,13.1l28.88,13.84,7.77-12.35-3.61-6.73c-6.64-9.08-18.87-25.76-19.72-26.54-.38-.34-1.7-3.52-3.35-7.8-3.52-9.09-8.59-23.13-9.56-25.56a3.61,3.61,0,0,0-2-1.75,1.77,1.77,0,0,0-1.61.53h0a5.65,5.65,0,0,0-1,1.34l0,.05a10.26,10.26,0,0,0-.74,1.67Z"
     transform="translate(-129.25 -37.59)"
     opacity="0.1"
     id="path153" />
  <path
     d="M513.33,263.47h0c0,.12.07,2,.15,4.87.17,5.56.44,15,.58,23.89.17,10.3.17,19.78-.34,21.4-1.18,3.76,4.62,13.1,4.62,13.1l28.87,13.85L555,328.23l-3.61-6.73c-6.64-9.08-18.86-25.76-19.72-26.54-.38-.34-1.69-3.52-3.35-7.8-3.52-9.08-8.59-23.13-9.56-25.56a3.6,3.6,0,0,0-2-1.74,1.72,1.72,0,0,0-1.61.52h0a5.55,5.55,0,0,0-1,1.35l0,0a10.19,10.19,0,0,0-.74,1.68Z"
     transform="translate(-129.25 -37.59)"
     opacity="0.1"
     id="path155" />
  <path
     d="M512.68,263.47h0c0,.12.07,2,.16,4.87.17,5.56.43,15,.58,23.89.16,10.3.16,19.78-.35,21.4-1.17,3.76,4.62,13.1,4.62,13.1l28.88,13.85,7.76-12.36s-1.37-2.58-3.6-6.73c-6.64-9.08-18.87-25.76-19.72-26.54-.38-.34-1.7-3.52-3.35-7.8-3.52-9.08-8.59-23.13-9.56-25.56a3.58,3.58,0,0,0-2-1.74,1.74,1.74,0,0,0-1.61.52h0a5.27,5.27,0,0,0-1,1.35l0,0a10.19,10.19,0,0,0-.74,1.68A0,0,0,0,0,512.68,263.47Z"
     transform="translate(-129.25 -37.59)"
     fill="#65617d"
     id="path157" />
  <ellipse
     cx="421.29"
     cy="309.33"
     rx="2.42"
     ry="4.19"
     opacity="0.1"
     id="ellipse159" />
  <ellipse
     cx="421.29"
     cy="308.68"
     rx="2.42"
     ry="4.19"
     fill="#1c3ed3"
     id="ellipse161" />
  <ellipse
     cx="427.5"
     cy="354.25"
     rx="2.42"
     ry="4.19"
     opacity="0.1"
     id="ellipse163" />
  <ellipse
     cx="425.09"
     cy="330.47"
     rx="2.42"
     ry="4.19"
     opacity="0.1"
     id="ellipse165" />
  <ellipse
     cx="429.92"
     cy="374.22"
     rx="2.42"
     ry="4.19"
     opacity="0.1"
     id="ellipse167" />
  <ellipse
     cx="427.5"
     cy="353.61"
     rx="2.42"
     ry="4.19"
     fill="#1c3ed3"
     id="ellipse169" />
  <ellipse
     cx="425.09"
     cy="329.83"
     rx="2.42"
     ry="4.19"
     fill="#1c3ed3"
     id="ellipse171" />
  <ellipse
     cx="429.92"
     cy="373.58"
     rx="2.42"
     ry="4.19"
     fill="#1c3ed3"
     id="ellipse173" />
  <path
     d="M507.05,293.94c.63-.48,3.55-1.14,6.37-1.7s5.7-1,5.7-1a17.13,17.13,0,0,1,8.54-4c-3.52-9.08-8.59-23.13-9.56-25.56a3.58,3.58,0,0,0-2-1.74,1.74,1.74,0,0,0-1.61.52h0a5.27,5.27,0,0,0-1,1.35l0,0-.59,6.57-.16,1.76s-4.67,2.25-3.7,6S505.76,294.91,507.05,293.94Z"
     transform="translate(-129.25 -37.59)"
     fill="#1c3ed3"
     id="path175" />
  <path
     d="M555.76,262.25s15.88,22.83,15.71,27.34-2.57,0-2.57,0-6.71-19.93-14.54-4.83Z"
     transform="translate(-129.25 -37.59)"
     opacity="0.1"
     id="path177" />
  <path
     d="M555.76,261.6s15.88,22.84,15.71,27.35-2.57,0-2.57,0-6.71-19.93-14.54-4.84Z"
     transform="translate(-129.25 -37.59)"
     fill="#1c3ed3"
     id="path179" />
  <path
     d="M598.53,291l2.36-2.32S607.06,291,608,294s3.54,2.22,3.54,2.22a14.07,14.07,0,0,0,3.54,1.28c1,0,2.42,4.51,2.42,4.51s10.14,2.58,11,2.74,40.57,37.07,40.57,37.07-22.86,3.51-26.4,2.06-7.09-1.7-8.86-2.06-41.7-8.89-41.7-8.89Z"
     transform="translate(-129.25 -37.59)"
     fill="#65617d"
     id="path181" />
  <path
     d="M603.52,271l4.18,5.32,18.52-10.52-3.69-4.34C619.23,266.47,613.35,271.86,603.52,271Z"
     transform="translate(-129.25 -37.59)"
     opacity="0.1"
     id="path183" />
  <path
     d="M663.1,339.83l5.95,2s14.5-1.32,13.53-7.6-7.25-17.78-7.25-17.78l-9-15.39s-3.55-4.22-3.22-5.57-4.19-3.61-4.19-3.61-2.58-3.38-2.74-5S641.52,273,641.52,273s-5-4.19-3.87-18.36H626.22s-5.25,21.1-25.33,17.23l27.59,32.85Z"
     transform="translate(-129.25 -37.59)"
     fill="#65617d"
     id="path185" />
  <path
     d="M436.9,511a35.65,35.65,0,0,0,18.08,5c1.26-6.29,1.85-11,1.85-11H439.27S438.23,507.41,436.9,511Z"
     transform="translate(-129.25 -37.59)"
     opacity="0.1"
     id="path187" />
  <path
     d="M468.9,340.59l-5.1,4.29s1,2.36-.74,3.65,0,11.11,0,11.11a5.84,5.84,0,0,1-1.4,3.59c-1.45,1.72,0,18.47,0,18.47a5.58,5.58,0,0,1-1.77,2.09c-1,.48-3.87,16.27-3.06,17.07s-12.24,38.81-12.24,38.81.32,6.6-1.45,7.73-2.09,8.69-2.09,8.69.8,6.76-2.42,8.05-3.86,24.16-3.86,24.16-4.35,11.75-6.93,13.68c0,0,12.24,16.75,35.91,11.92,0,0,1-21.1,3.86-29.47l8.54-42.67s5.15-18.2,7.08-28.18,10.42-48.31,10.42-48.31V351.59Z"
     transform="translate(-129.25 -37.59)"
     fill="#65617d"
     id="path189" />
  <ellipse
     cx="314.54"
     cy="419.79"
     rx="1.13"
     ry="2.25"
     opacity="0.1"
     id="ellipse191" />
  <ellipse
     cx="310.03"
     cy="438.95"
     rx="1.13"
     ry="2.25"
     opacity="0.1"
     id="ellipse193" />
  <ellipse
     cx="306.65"
     cy="456.5"
     rx="1.13"
     ry="2.25"
     opacity="0.1"
     id="ellipse195" />
  <ellipse
     cx="312.28"
     cy="429.45"
     rx="1.13"
     ry="2.25"
     opacity="0.1"
     id="ellipse197" />
  <ellipse
     cx="307.77"
     cy="448.13"
     rx="1.13"
     ry="2.25"
     opacity="0.1"
     id="ellipse199" />
  <ellipse
     cx="314.54"
     cy="419.15"
     rx="1.13"
     ry="2.25"
     fill="#1c3ed3"
     id="ellipse201" />
  <ellipse
     cx="310.03"
     cy="438.31"
     rx="1.13"
     ry="2.25"
     fill="#1c3ed3"
     id="ellipse203" />
  <ellipse
     cx="306.65"
     cy="455.86"
     rx="1.13"
     ry="2.25"
     fill="#1c3ed3"
     id="ellipse205" />
  <ellipse
     cx="312.28"
     cy="428.81"
     rx="1.13"
     ry="2.25"
     fill="#1c3ed3"
     id="ellipse207" />
  <ellipse
     cx="307.77"
     cy="447.49"
     rx="1.13"
     ry="2.25"
     fill="#1c3ed3"
     id="ellipse209" />
  <path
     d="M525.44,371.61s-17.4-3-22.72,0S525.44,371.61,525.44,371.61Z"
     transform="translate(-129.25 -37.59)"
     opacity="0.1"
     id="path211" />
  <path
     d="M513.74,388.62s-9-14.65-11.69-10S513.74,388.62,513.74,388.62Z"
     transform="translate(-129.25 -37.59)"
     opacity="0.1"
     id="path213" />
  <path
     d="M471.64,404.89c-.48.48-19.65,22.38-19.48,23.83S471.64,404.89,471.64,404.89Z"
     transform="translate(-129.25 -37.59)"
     opacity="0.1"
     id="path215" />
  <path
     d="M643.61,327.27c-.16.49-5.16,10.47-1.85,11.6S643.61,327.27,643.61,327.27Z"
     transform="translate(-129.25 -37.59)"
     opacity="0.1"
     id="path217" />
  <path
     d="M628.64,313.42s-7.57,2.74-8.86,4S628.64,313.42,628.64,313.42Z"
     transform="translate(-129.25 -37.59)"
     opacity="0.1"
     id="path219" />
  <path
     d="M654.24,306c-3.54-.16-16.1-3.55-16.59-2.42S654.24,306,654.24,306Z"
     transform="translate(-129.25 -37.59)"
     opacity="0.1"
     id="path221" />
  <path
     d="M522.38,244.62c-.53,12.52-7.7,23.51-7.7,23.51l12,29.19v8.49c8.16.86,16.76-.91,22.7-6.46-4.71-1.54-7.58-6.22-9.77-10.67a123.53,123.53,0,0,1-6.53-16.16c-1.2-3.71-1.82-8.65,1.48-10.74,1.51-1,3.51-1,4.91-2.12,1.81-1.45,1.93-4.2,1.31-6.43-.07-.24-.14-.48-.22-.71-1.46-4.34-4.9-7.77-7-11.87a21.46,21.46,0,0,1-1.27-15.91,19.86,19.86,0,0,1,2.31-5,21.43,21.43,0,0,1,18.57-9.64c1.87.08,4.16.2,5.11-1.4.74-1.22.21-2.8.45-4.21.71-4.3,6-5.25,11-6.59a32.24,32.24,0,0,0-26.37-14c-18.08,0-32.75,15.38-32.75,34.36A35,35,0,0,0,522.38,244.62Z"
     transform="translate(-129.25 -37.59)"
     opacity="0.1"
     id="path223" />
  <path
     d="M557.48,204.5c-.24,1.41.29,3-.44,4.22-1,1.59-3.25,1.47-5.11,1.39a21,21,0,0,0-19.62,30.54c2.2,4.32,5.9,7.9,7.21,12.57.62,2.24.5,5-1.31,6.44-1.39,1.13-3.4,1.16-4.91,2.12-3.3,2.09-2.68,7-1.48,10.74a122.2,122.2,0,0,0,6.54,16.16c2.18,4.45,5,9.13,9.76,10.67-6.88,6.42-17.3,7.8-26.5,5.85s-17.51-6.74-25.64-11.48c-3.34-1.94-6.87-4.09-8.5-7.59-2.22-4.76-.24-10.29,1.17-15.34a6.14,6.14,0,0,0,.17-3.94c-.63-1.52-2.27-2.31-3.79-3-6.42-2.68,6-5,0-8.56s-11.46-8.44-14.2-14.84c-4.67-10.89-.46-23.88,7-33.09s-1.28-15.63,8.26-22.66c6.08-4.49,12-9.33,18.76-12.69a51.5,51.5,0,0,1,44.11-.29c6.93,3.25,12.58,8.49,19.38,12,3.35,1.73,10.7,3.92,8.83,8.72C574.34,199.76,558.74,196.91,557.48,204.5Z"
     transform="translate(-129.25 -37.59)"
     fill="#3f3d56"
     id="path225" />
  <path
     d="M490.23,469.84s24,21.9,18.89,21.9S490.23,469.84,490.23,469.84Z"
     transform="translate(-129.25 -37.59)"
     opacity="0.1"
     id="path227" />
  <path
     d="M486.79,478.43s15.89,15,11.17,16.31S486.79,478.43,486.79,478.43Z"
     transform="translate(-129.25 -37.59)"
     opacity="0.1"
     id="path229" />
  <path
     d="M480.22,442.18s1.32.86,3.86,2.38c4.31-4.32,10.63-11.27,12.68-16.87,3.22-8.81,1.93-34.35,1.93-34.35-1.08,1.07-2.69,10-2.69,10l-3.83,14.26-.67.56c-6,4.93-6.77,13.52-8.49,15.67S480.22,442.18,480.22,442.18Z"
     transform="translate(-129.25 -37.59)"
     opacity="0.1"
     id="path231" />
  <path
     d="M517.41,304.17c9.21,1.95,19.63.57,26.51-5.85-4.71-1.55-7.58-6.22-9.77-10.67a122.15,122.15,0,0,1-6.53-16.16c-1.21-3.71-1.83-8.65,1.47-10.74,1.52-1,3.52-1,4.92-2.12,1.81-1.45,1.93-4.2,1.3-6.44-1.3-4.67-5-8.25-7.21-12.57a21,21,0,0,1,19.62-30.54c1.86.08,4.16.2,5.11-1.39.73-1.23.21-2.81.44-4.22,1.27-7.59,16.86-4.74,19.68-12,1.86-4.8-5.48-7-8.83-8.72-6.8-3.52-12.45-8.76-19.38-12-1.14-.53-2.31-1-3.49-1.47A50.38,50.38,0,0,1,548.6,172c6.93,3.25,12.58,8.49,19.38,12,3.35,1.74,10.7,3.93,8.83,8.73-2.81,7.26-18.41,4.41-19.67,12-.24,1.41.29,3-.44,4.22-1,1.59-3.25,1.47-5.11,1.39A21,21,0,0,0,532,240.9c2.2,4.33,5.9,7.91,7.21,12.58.62,2.24.5,5-1.31,6.44-1.39,1.13-3.39,1.16-4.91,2.12-3.3,2.09-2.68,7-1.48,10.74A122.2,122.2,0,0,0,538,288.94c2.18,4.45,5.05,9.12,9.76,10.67-6.88,6.42-17.3,7.79-26.5,5.85a50.26,50.26,0,0,1-7.25-2.13C515.15,303.65,516.27,303.93,517.41,304.17Z"
     transform="translate(-129.25 -37.59)"
     opacity="0.1"
     id="path259" />
</svg>
