<?xml version="1.0" encoding="UTF-8" standalone="no"?>
<!-- Created with Inkscape (http://www.inkscape.org/) -->

<svg
   xmlns:dc="http://purl.org/dc/elements/1.1/"
   xmlns:cc="http://creativecommons.org/ns#"
   xmlns:rdf="http://www.w3.org/1999/02/22-rdf-syntax-ns#"
   xmlns:svg="http://www.w3.org/2000/svg"
   xmlns="http://www.w3.org/2000/svg"
   xmlns:sodipodi="http://sodipodi.sourceforge.net/DTD/sodipodi-0.dtd"
   xmlns:inkscape="http://www.inkscape.org/namespaces/inkscape"
   width="419.52164mm"
   height="128.87553mm"
   viewBox="0 0 419.52163 128.87553"
   version="1.1"
   id="svg8"
   inkscape:version="0.92.4 (33fec40, 2019-01-16)"
   sodipodi:docname="undraw_dish.svg">
  <defs
     id="defs2" />
  <sodipodi:namedview
     id="base"
     pagecolor="#ffffff"
     bordercolor="#666666"
     borderopacity="1.0"
     inkscape:pageopacity="0.0"
     inkscape:pageshadow="2"
     inkscape:zoom="0.7"
     inkscape:cx="613.109"
     inkscape:cy="192.03796"
     inkscape:document-units="mm"
     inkscape:current-layer="g2967"
     showgrid="false"
     fit-margin-top="-40"
     fit-margin-left="0"
     fit-margin-right="0"
     fit-margin-bottom="0"
     inkscape:window-width="1920"
     inkscape:window-height="1025"
     inkscape:window-x="0"
     inkscape:window-y="27"
     inkscape:window-maximized="1"
     showguides="true"
     inkscape:guide-bbox="true">
    <sodipodi:guide
       position="33.261903,92.226189"
       orientation="1,0"
       id="guide2988"
       inkscape:locked="false" />
  </sodipodi:namedview>
  <metadata
     id="metadata5">
    <rdf:RDF>
      <cc:Work
         rdf:about="">
        <dc:format>image/svg+xml</dc:format>
        <dc:type
           rdf:resource="http://purl.org/dc/dcmitype/StillImage" />
        <dc:title></dc:title>
      </cc:Work>
    </rdf:RDF>
  </metadata>
  <g
     inkscape:label="Capa 1"
     inkscape:groupmode="layer"
     id="layer1"
     transform="translate(28.123111,-44.67543)">
    <g
       id="g826"
       transform="translate(-47.625,3.2719077e-6)">
      <g
         id="g2967">
        <g
           transform="translate(-86.934527,51.782734)"
           id="g2213">
          <path
             style="opacity:0.1;fill:#1c3ed3;fill-opacity:1;stroke-width:0.35277775"
             d="m 135.96277,109.09512 c -1.29053,-0.81741 0.90258,-1.61302 5.50745,-1.99798 1.59753,-0.13355 3.04678,-0.42098 3.22055,-0.63874 0.17377,-0.21776 0.89171,-2.10965 1.59543,-4.20419 0.70371,-2.09454 1.65752,-4.555169 2.11957,-5.468059 0.46205,-0.91288 1.03553,-2.31338 1.2744,-3.11221 0.42391,-1.41766 0.39338,-1.52591 -1.27622,-4.52429 -1.88947,-3.39327 -1.59229,-3.32868 -3.41661,-0.74261 -0.43776,0.62054 -0.95957,0.89849 -1.68677,0.89849 -1.51802,0 -1.68995,-0.87846 -0.56594,-2.89165 0.70212,-1.25756 0.94626,-2.18889 0.94626,-3.60973 0,-2.21853 0.48178,-2.88349 2.34202,-3.23247 1.04873,-0.19675 1.48815,-0.58799 2.61024,-2.32407 0.74206,-1.14813 1.45975,-2.59572 1.59484,-3.21688 0.1351,-0.62115 0.704,-1.65351 1.26422,-2.29413 0.56022,-0.64061 1.63407,-2.38686 2.38633,-3.88055 0.75226,-1.49369 1.95916,-3.58892 2.682,-4.65608 1.88917,-2.78905 1.95534,-4.91596 0.25793,-8.29027 -2.54371,-5.05667 -2.8372,-5.70117 -3.7411,-8.21545 -3.43495,-9.55461 -4.55354,-21.11313 -2.72142,-28.12066 1.59973,-6.11868 4.68578,-10.85217 7.73025,-11.85694 0.74297,-0.2452 2.77771,-0.33758 5.30614,-0.24091 3.57821,0.13681 4.59577,0.32588 7.9816,1.48301 4.63417,1.58377 9.80708,4.23223 16.79497,8.59879 2.83433,1.7711 5.53308,3.37772 5.99723,3.57027 0.7481,0.31034 11.71874,2.0781 16.89529,2.72243 5.58753,0.69549 10.45087,3.71492 12.71504,7.89418 0.26279,0.48507 0.50344,2.07257 0.53477,3.52778 0.0313,1.45521 0.31823,4.39208 0.63754,6.52639 0.31931,2.1343 0.75916,5.78555 0.97745,8.11388 0.37804,4.03243 0.46495,4.34216 1.83118,6.52639 1.66856,2.66757 5.29036,9.91899 6.29419,12.60195 1.70873,4.56699 3.11396,10.79508 3.1149,13.80546 7.1e-4,1.74572 -0.85959,5.34702 -1.63543,6.84732 -0.28636,0.55378 -1.06154,1.60555 -1.72261,2.33728 -1.03982,1.15095 -1.81043,1.52541 -5.71269,2.77592 -8.11721,2.60124 -8.43447,2.66945 -11.35137,2.44057 -11.2523,-0.88297 -29.05251,-7.18904 -37.30585,-13.21633 -1.3853,-1.01167 -2.6927,-1.83939 -2.90534,-1.83939 -0.26821,0 -0.36115,1.80958 -0.3035,5.90903 0.0457,3.24996 -0.0616,8.58709 -0.23853,11.86029 -0.29115,5.386789 -0.26605,5.982379 0.26458,6.279329 0.67687,0.37879 0.77131,1.19532 0.18049,1.56047 -0.40237,0.24868 -5.16641,0.84028 -12.29425,1.52671 -9.51577,0.9164 -27.18446,1.39772 -28.17923,0.76765 z m 21.29701,-3.52745 c 0.83205,-0.13547 1.44455,-0.44193 1.49726,-0.74916 0.0937,-0.54637 -3.3456,-5.325879 -3.97759,-5.527509 -0.28246,-0.0901 -2.12148,3.641149 -3.28588,6.666849 -0.11958,0.31074 2.58506,0.12773 5.76621,-0.39018 z m 8.23796,-7.795479 c -0.39565,-8.97605 -0.86883,-15.50567 -1.14354,-15.78038 -0.13186,-0.13187 -0.89261,-0.009 -1.69055,0.27379 -1.37991,0.48845 -1.53539,0.69855 -3.18253,4.30054 -2.53013,5.53294 -2.53017,5.57162 -0.01,9.12145 1.15853,1.6316 2.7017,4.15717 3.42925,5.612379 1.70223,3.40469 1.93937,3.70326 2.46579,3.10451 0.29234,-0.33251 0.32842,-2.15691 0.13115,-6.632289 z m 5.85361,-17.4625 c 0.228,-4.13894 0.21385,-4.25693 -0.63424,-5.29166 -0.47709,-0.58209 -0.97894,-0.94782 -1.11524,-0.81275 -0.1363,0.13508 0.01,3.15133 0.32455,6.70278 0.3148,3.55145 0.59365,7.17156 0.61966,8.04469 0.0564,1.89369 0.46845,-2.52866 0.80527,-8.64306 z m -17.43991,3.81313 c 0,-0.50753 -0.98397,-0.6102 -1.67026,-0.17429 -0.3352,0.21291 -0.30205,0.46721 0.14388,1.10387 0.55352,0.79026 0.60057,0.79829 1.0529,0.17969 0.26041,-0.35614 0.47348,-0.85531 0.47348,-1.10927 z m 2.82222,-6.46999 c 2.42535,-0.39541 5.1241,-0.83639 5.99723,-0.97998 l 1.58749,-0.26104 -0.0657,-3.97784 c -0.0965,-5.83794 -0.93572,-7.91344 -3.50935,-8.67889 -0.65255,-0.19409 -1.03434,0.2358 -2.86539,3.22646 -2.6434,4.31745 -3.61368,6.22781 -3.61368,7.11488 0,0.38171 -0.36289,0.98334 -0.80642,1.33698 -0.86296,0.68804 -2.0158,2.21029 -2.0158,2.66174 0,0.3908 0.37257,0.35966 5.29166,-0.44231 z m 66.32971,-35.47658 c -0.47139,-6.35035 -0.67513,-7.25636 -1.48133,-6.58727 -0.2581,0.2142 -1.02185,0.44212 -1.69721,0.50648 -1.09828,0.10466 -1.32859,0.32189 -2.18109,2.05729 -0.52423,1.06716 -0.9632,2.22383 -0.9755,2.57038 -0.0297,0.8385 6.41915,8.62036 6.62701,7.99677 0.0872,-0.26159 -0.0442,-3.20624 -0.29188,-6.54365 z m -6.93277,-5.10508 c 0.51043,-1.17696 0.92806,-2.21804 0.92806,-2.31352 0,-0.0955 -0.67902,-0.84299 -1.50892,-1.66114 -2.4403,-2.40575 -3.42997,-3.89422 -3.42997,-5.15868 0,-1.10658 -0.0457,-1.14443 -1.14653,-0.95007 -0.63059,0.11133 -2.53559,0.30957 -4.23333,0.44055 -1.69775,0.13097 -3.08681,0.33356 -3.08681,0.4502 0,0.28408 11.0429,11.33258 11.32684,11.33258 0.12243,0 0.64023,-0.96297 1.15066,-2.13992 z m -5.96875,-11.61659 c 2.92227,-0.002 2.69484,-0.44888 -0.51153,-1.00469 -1.26118,-0.21863 -3.0868,-0.57115 -4.05694,-0.78339 -2.41995,-0.52942 -8.08265,-1.34068 -8.25235,-1.18227 -0.23313,0.21761 0.77063,1.26827 2.25513,2.36051 1.39099,1.02345 1.45889,1.03521 4.7625,0.82496 1.84326,-0.11731 4.4547,-0.21412 5.80319,-0.21512 z"
             id="path840"
             inkscape:connector-curvature="0" />
          <path
             style="fill:#3f3d56;fill-opacity:1;stroke-width:0.35277775"
             d="m 136.20387,108.50025 c -0.33488,-0.54184 1.11257,-0.93722 4.41013,-1.20464 1.64924,-0.13376 3.26573,-0.32146 3.59221,-0.41712 0.3935,-0.1153 1.03718,-1.50633 1.90945,-4.12645 0.72372,-2.17388 1.84469,-5.057269 2.49105,-6.407519 1.66831,-3.48507 1.77953,-4.40622 0.73164,-6.05953 -0.47522,-0.74978 -1.28993,-2.1173 -1.81045,-3.03894 -0.52053,-0.92163 -1.08658,-1.67569 -1.25789,-1.67569 -0.17132,0 -0.68262,0.67469 -1.13624,1.4993 -0.61371,1.11564 -1.07236,1.52792 -1.79233,1.61113 -1.39261,0.16094 -1.55236,-0.70541 -0.47045,-2.55154 0.68489,-1.16868 0.91801,-2.05466 0.91801,-3.48893 0,-2.12181 0.32709,-2.5858 2.06837,-2.93405 1.65942,-0.33188 4.6,-4.49573 4.62666,-6.55132 0.004,-0.32855 0.3128,-0.81103 0.68564,-1.07217 0.37284,-0.26115 1.64326,-2.26566 2.82314,-4.45447 1.17989,-2.18881 2.57777,-4.54672 3.10641,-5.23981 0.76034,-0.99684 0.97105,-1.67352 1.00847,-3.23845 0.0422,-1.76448 -0.1897,-2.45491 -2.14552,-6.38802 -4.32675,-8.701 -6.32884,-17.02002 -6.32514,-26.28194 0.002,-4.43156 0.13504,-5.77907 0.81985,-8.29028 1.52529,-5.59327 4.27974,-9.98781 6.99093,-11.15356 1.69696,-0.72966 7.81372,-0.62883 10.85925,0.179 5.6254,1.49215 11.56319,4.36815 19.75555,9.56873 5.58811,3.54737 5.82727,3.64921 10.23055,4.35607 5.62999,0.90378 10.07959,1.56537 12.17084,1.80961 1.06715,0.12464 3.18321,0.63002 4.70235,1.12308 2.32203,0.75365 3.12659,1.23746 5.05005,3.03676 3.01936,2.82446 3.45708,3.69441 3.49958,6.95531 0.019,1.45521 0.36774,4.86833 0.77505,7.58472 0.40732,2.71639 0.85178,6.36764 0.98769,8.11389 0.23503,3.01969 0.33677,3.32168 2.07991,6.17361 4.13066,6.75814 7.40259,14.94709 8.5277,21.34305 0.9416,5.35272 0.15246,9.68239 -2.33928,12.83468 -1.30369,1.64929 -1.62962,1.84327 -4.84387,2.88277 -5.96372,1.9287 -9.38886,2.79447 -11.07335,2.799 -0.8965,0.002 -3.4365,-0.30997 -5.64444,-0.69417 -11.89812,-2.07039 -24.22937,-6.71747 -32.19168,-12.13153 -1.91553,-1.30249 -3.66178,-2.40137 -3.88055,-2.44195 -0.28283,-0.0525 -0.39777,1.71012 -0.39777,6.09981 0,3.39549 -0.14404,8.91598 -0.32008,12.26775 -0.30022,5.716039 -0.27986,6.123559 0.32816,6.568149 0.62672,0.45827 0.62564,0.48591 -0.0327,0.83261 -0.37452,0.19723 -2.57013,0.54101 -4.87913,0.76396 -2.309,0.22294 -4.31684,0.47868 -4.46184,0.5683 -0.44008,0.27198 -19.93594,1.22221 -25.09762,1.22325 -2.8465,7.1e-4 -4.91958,-0.14416 -5.04831,-0.35246 z m 20.89634,-2.86475 c 1.01526,-0.19638 1.9197,-0.47641 2.00986,-0.62229 0.36692,-0.5937 -4.13337,-6.532729 -4.78546,-6.315369 -0.37247,0.12416 -3.48005,6.773679 -3.48005,7.446519 0,0.33391 3.27656,0.0674 6.25565,-0.50886 z m 8.56453,-5.19802 c 0.003,-3.627149 -0.35245,-10.063789 -0.93517,-16.928919 l -0.18998,-2.23818 -1.29126,0.23581 c -2.09916,0.38334 -2.61598,0.96032 -4.40254,4.91496 -2.4881,5.50756 -2.4883,5.48574 0.0869,9.16658 1.18928,1.69988 2.81289,4.38794 3.60801,5.973459 1.52093,3.03284 1.87848,3.46029 2.64755,3.16517 0.35767,-0.13724 0.47382,-1.18276 0.47648,-4.28888 z m 56.26453,-6.908729 c 1.86749,-0.50517 1.81504,-0.55871 -1.23472,-1.26047 -1.71912,-0.39558 -8.59054,-3.48614 -14.12198,-6.35165 -5.64032,-2.92192 -15.95977,-10.96 -19.84226,-15.45565 -0.78257,-0.90616 -3.33429,-3.75825 -5.67049,-6.33798 -5.07837,-5.60775 -12.79937,-15.70732 -15.48484,-20.25517 -2.86652,-4.85448 -5.56537,-10.40112 -7.85963,-16.15302 -2.38648,-5.98311 -2.9772,-8.19575 -2.98473,-11.17988 -0.007,-2.61432 -0.5204,-3.128 -1.28124,-1.28093 -0.30546,0.74157 -0.76853,1.82456 -1.02905,2.40664 -2.82312,6.30783 -1.72238,17.94964 2.75159,29.10187 0.8168,2.03603 1.99921,4.41728 2.62757,5.29167 0.62836,0.87438 1.52874,2.39539 2.00085,3.38 1.99276,4.15609 8.55037,13.56538 12.46318,17.88301 2.0148,2.22326 6.49956,6.17911 8.21437,7.24561 0.48507,0.30168 1.35819,0.97602 1.94028,1.49852 1.09721,0.9849 5.74038,3.86182 6.23275,3.86182 0.15404,0 1.61865,0.62708 3.2547,1.39352 5.2805,2.47375 8.77772,3.72337 12.73754,4.55135 0.97014,0.20285 2.55764,0.54756 3.52778,0.76602 0.97014,0.21846 3.01879,0.54226 4.55257,0.71956 1.53376,0.1773 2.86991,0.4036 2.96921,0.5029 0.35749,0.35749 4.51014,0.13926 6.23655,-0.32774 z m -50.47048,-13.77922 0.24552,-3.88056 -1.10695,-1.32292 c -1.64769,-1.96915 -1.90128,-1.74963 -1.6301,1.41112 0.12902,1.50371 0.47161,5.86104 0.76132,9.68294 0.28971,3.82191 0.64401,7.23504 0.78733,7.58473 0.14333,0.34969 0.35886,-1.66608 0.47898,-4.47948 0.12011,-2.8134 0.32887,-6.86153 0.4639,-8.99583 z m -17.9884,5.38955 c 0.30204,-0.43122 0.54917,-1.08699 0.54917,-1.45726 0,-0.57676 -0.18318,-0.64349 -1.27843,-0.46576 -1.67673,0.27209 -1.72455,0.35194 -0.97294,1.62432 0.76248,1.29077 0.98052,1.32903 1.7022,0.2987 z m 2.48944,-7.30385 c 2.13431,-0.36974 4.78862,-0.78267 5.89848,-0.91762 1.10985,-0.13494 2.20498,-0.47075 2.43361,-0.74624 0.55649,-0.67052 0.13878,-7.63935 -0.58001,-9.67661 -0.67268,-1.90658 -1.12071,-2.43553 -2.57943,-3.04527 -1.48371,-0.62019 -1.58617,-0.53481 -3.89813,3.24858 -2.4026,3.93171 -3.56757,6.2781 -3.56757,7.18553 0,0.40391 -0.40499,0.99974 -0.89998,1.32407 -0.87014,0.57014 -1.92224,2.17755 -1.92224,2.93684 0,0.50594 0.62907,0.46791 5.11527,-0.30928 z m 2.99862,-15.19542 c 0,-0.19403 -0.15875,-0.35278 -0.35278,-0.35278 -0.19403,0 -0.35278,0.15875 -0.35278,0.35278 0,0.19402 0.15875,0.35277 0.35278,0.35277 0.19403,0 0.35278,-0.15875 0.35278,-0.35277 z m 64.09594,-22.14112 c -0.26783,-2.96129 -0.59809,-5.49528 -0.73389,-5.63108 -0.13581,-0.13581 -0.55505,-0.0545 -0.93165,0.18069 -0.3766,0.23519 -1.24092,0.42762 -1.92072,0.42762 -1.18205,0 -1.28235,0.10222 -2.29784,2.34185 -0.58402,1.28802 -1.06185,2.57444 -1.06185,2.85872 0,0.51046 3.52527,5.00159 5.97145,7.60751 l 1.26049,1.3428 0.1005,-1.87197 c 0.0553,-1.02958 -0.11865,-4.29484 -0.38649,-7.25614 z m -6.92382,-3.42752 c 0.56991,-1.25693 1.0362,-2.36975 1.0362,-2.47294 0,-0.10319 -1.12163,-1.3973 -2.49252,-2.87581 -2.17382,-2.34447 -2.47964,-2.83778 -2.39173,-3.85815 0.0554,-0.64347 0.0108,-1.25996 -0.0992,-1.36998 -0.29242,-0.29242 -8.88863,0.5779 -9.30128,0.94171 -0.3341,0.29456 11.27507,11.88947 11.92564,11.91099 0.15769,0.005 0.753,-1.01891 1.32292,-2.27582 z m 6.32787,-4.25281 c 0,-0.70159 -1.93517,-3.73474 -3.05633,-4.79042 -1.55294,-1.46227 -3.52389,-2.66995 -3.84056,-2.35327 -0.76943,0.76942 5.09094,7.2354 6.63231,7.31768 0.14552,0.008 0.26458,-0.0705 0.26458,-0.17399 z m -9.37213,-7.61206 c 0.50376,-0.46198 0.25239,-0.55947 -2.97509,-1.15395 -1.64924,-0.30377 -4.42736,-0.8546 -6.17361,-1.22407 -6.95667,-1.47189 -8.84018,-1.25352 -6.49771,0.75332 2.81551,2.4121 2.71857,2.38977 9.31993,2.1471 3.29847,-0.12125 6.14539,-0.35633 6.32648,-0.5224 z"
             id="path838"
             inkscape:connector-curvature="0" />
          <path
             style="fill:#65617d;fill-opacity:1;stroke-width:0.35277775"
             d="m 137.14202,107.83275 c 0.57523,-0.25351 2.43033,-0.56924 4.12245,-0.70161 1.69212,-0.13237 3.2241,-0.42799 3.4044,-0.65694 0.1803,-0.22894 0.89624,-2.11221 1.59099,-4.18504 0.69475,-2.07283 1.6089,-4.44645 2.03144,-5.2747 0.42254,-0.82825 1.04715,-2.31651 1.38801,-3.30725 l 0.61975,-1.80133 -1.80979,-3.24192 c -1.85811,-3.3285 -2.76345,-4.01353 -3.23766,-2.44977 -0.5344,1.76222 -2.5405,3.02797 -3.17414,2.00273 -0.12866,-0.20819 0.25151,-1.15944 0.84483,-2.1139 0.92135,-1.48213 1.05295,-1.98031 0.90181,-3.41384 -0.0973,-0.92315 -0.0503,-1.8531 0.10448,-2.06654 0.1548,-0.21344 0.99583,-0.62005 1.86896,-0.90358 1.23561,-0.40124 1.84075,-0.88966 2.73001,-2.20341 0.62838,-0.928356 1.33299,-2.34737 1.56581,-3.153368 0.23281,-0.805998 0.87271,-1.990436 1.422,-2.632082 0.54928,-0.641643 1.78626,-2.736035 2.74884,-4.654204 0.96259,-1.918169 2.21362,-4.015436 2.78008,-4.660596 0.91095,-1.037512 1.02992,-1.436567 1.02992,-3.454382 0,-2.091242 -0.17318,-2.618038 -2.07819,-6.321439 -3.27188,-6.360653 -5.39968,-13.76634 -6.34288,-22.07608 -1.15727,-10.195686 2.69505,-21.643217 7.96002,-23.653928 2.67646,-1.022146 8.23523,-0.586334 12.98882,1.018333 4.84803,1.636548 10.55946,4.551208 17.6561,9.010263 4.27496,2.686106 5.98543,3.569352 7.24881,3.74311 2.0021,0.275359 3.17443,0.872761 1.72884,0.880987 -1.50006,0.0085 -1.45037,0.522815 0.19728,2.041565 2.40396,2.215892 2.43214,2.222496 8.7255,2.044898 6.72169,-0.189689 7.10725,0.286032 0.74722,0.921928 -2.52931,0.252888 -4.31096,0.585512 -4.31096,0.80483 0,0.205596 2.60425,2.974481 5.78723,6.153076 3.86491,3.859582 5.96171,5.712315 6.31248,5.577709 0.76993,-0.295451 2.43801,-4.143608 2.20265,-5.081376 -0.10841,-0.431937 -0.91774,-1.387453 -1.7985,-2.123369 -2.18549,-1.826073 -2.77404,-2.817329 -2.82131,-4.751793 -0.0324,-1.323618 0.0876,-1.683332 0.60661,-1.819056 1.13464,-0.296711 0.6965,-0.870895 -0.85236,-1.117042 -2.69538,-0.42835 -7.83914,-1.708616 -7.4226,-1.847462 0.94667,-0.315556 8.57884,0.992318 10.94688,1.875899 2.97236,1.109066 6.22476,3.913953 7.50196,6.469725 0.67173,1.344179 0.72549,1.738958 0.38954,2.860262 -0.25864,0.863251 -0.27687,1.644068 -0.0542,2.321144 0.39157,1.190674 1.6507,10.332317 1.98696,14.425851 0.20052,2.441145 0.40396,3.084213 1.50664,4.7625 3.63759,5.53642 7.2634,14.116377 8.69143,20.567027 0.89874,4.05975 0.6394,9.28978 -0.58952,11.88853 -1.56999,3.31998 -2.38124,3.91707 -7.52862,5.54117 -9.59664,3.02793 -8.67711,2.91314 -14.85361,1.85423 -6.15224,-1.05475 -11.01828,-2.32438 -16.18527,-4.22301 -8.35361,-3.06955 -12.39531,-5.0695 -17.46489,-8.64213 -1.51298,-1.06623 -2.917,-1.9386 -3.12003,-1.9386 -0.2453,0 -0.36184,2.33771 -0.34735,6.96736 0.012,3.83205 -0.13073,9.34861 -0.31716,12.25903 -0.29111,4.54464 -0.26385,5.37912 0.19312,5.91119 0.29264,0.34074 0.43611,0.71549 0.31883,0.83277 -0.38246,0.38246 -11.57003,1.56596 -17.89169,1.89271 -3.39548,0.17551 -9.66611,0.31522 -13.93472,0.31048 -6.69143,-0.007 -7.61696,-0.0721 -6.71525,-0.46956 z m 12.11381,-2.65676 c 0.44268,-3.65269 4.90409,-15.06777 7.72114,-19.75555 1.40883,-2.34439 1.45521,-2.77932 0.27231,-2.5532 -1.02767,0.19645 -1.36521,0.7702 -3.29797,5.60591 -2.38146,5.95835 -4.99104,12.18521 -6.24453,14.90044 -0.66202,1.43403 -1.20368,2.67392 -1.20368,2.75533 0,0.0814 0.59532,0.0987 1.32292,0.0385 1.11168,-0.092 1.33998,-0.25031 1.42981,-0.99144 z m 7.68405,0.48317 c 2.15562,-0.28872 2.51096,-0.59582 1.93491,-1.67218 -0.89072,-1.66433 -4.13838,-5.69015 -4.59028,-5.69015 -0.4472,0 -3.54807,6.5789 -3.54807,7.52768 0,0.49063 1.63035,0.44718 6.20344,-0.16535 z m 8.52102,-1.27692 c 0.56293,-0.71542 -0.47221,-22.18864 -1.10824,-22.98964 -0.329,-0.41436 -0.63878,-0.41169 -2.06541,0.0177 -1.65559,0.49836 -1.69932,0.55008 -3.22434,3.81355 -0.8503,1.81959 -1.8118,4.10859 -2.13667,5.08667 l -0.59067,1.77833 2.67434,3.86786 c 1.47088,2.12732 3.09158,4.7941 3.60154,5.92618 1.08522,2.40911 1.45732,2.94029 2.05971,2.94029 0.24352,0 0.59891,-0.19844 0.78974,-0.44098 z m 3.14184,-0.44673 c 0.11289,-0.2942 0.0305,-3.66764 -0.18297,-7.49652 -0.21354,-3.82888 -0.55412,-10.13661 -0.75686,-14.01716 -0.48536,-9.290192 -0.83886,-12.322966 -1.56568,-13.43223 -0.33028,-0.504066 -0.67306,-0.843925 -0.76175,-0.75524 -0.0887,0.08869 0.23463,3.317148 0.71848,7.17436 0.48385,3.85721 0.9778,8.99748 1.09765,11.42283 0.11986,2.42535 0.27591,5.1241 0.34679,5.99722 0.0709,0.87313 0.13843,3.84969 0.15011,6.61458 0.0136,3.20445 0.15318,5.02709 0.38511,5.02709 0.20012,0 0.45622,-0.24072 0.56912,-0.53493 z m 2.62681,-18.08877 c 0.13081,-4.40606 0.3501,-8.4357 0.48731,-8.954745 0.20954,-0.792649 0.009,-1.204218 -1.25048,-2.570974 -0.82497,-0.894986 -1.61023,-1.502187 -1.74502,-1.349332 -0.1348,0.152855 -0.0467,2.262293 0.19579,4.687641 0.24249,2.42535 0.62863,7.02397 0.85811,10.21915 0.40723,5.67014 0.56295,6.63278 1.00192,6.19381 0.11799,-0.11799 0.32156,-3.81949 0.45237,-8.22555 z m 50.85619,7.63221 c 1.74886,-0.38383 2.27481,-1.00296 0.85201,-1.00296 -3.09086,0 -18.41055,-7.47207 -23.87076,-11.6428 -6.98278,-5.333725 -9.20563,-7.377261 -15.74599,-14.475798 -4.97885,-5.403769 -7.54256,-8.51457 -12.37716,-15.018416 -5.69972,-7.667674 -9.46923,-14.542293 -13.32603,-24.303254 -2.07868,-5.260813 -2.41471,-6.441233 -2.73663,-9.613194 -0.25173,-2.480409 -0.50667,-3.615972 -0.81183,-3.615972 -0.45905,0 -2.21637,3.903839 -3.01727,6.702777 -0.96507,3.372679 -0.40045,11.982065 1.17993,17.991666 0.38268,1.455208 0.77354,3.042708 0.86858,3.527777 0.36119,1.843599 3.48198,8.735779 4.91725,10.859653 0.82387,1.219133 1.60887,2.566073 1.74443,2.993206 0.37715,1.18829 4.92763,8.139729 7.83071,11.962404 4.26127,5.611096 7.96029,9.298488 13.65873,13.615801 5.30573,4.01977 15.80018,8.79541 22.57778,10.27432 0.97014,0.21169 2.55764,0.55758 3.52778,0.76865 0.97013,0.21107 2.87513,0.53298 4.23333,0.71534 1.35819,0.18237 3.18382,0.46866 4.05694,0.63619 1.71203,0.32851 3.78052,0.20789 6.4382,-0.37539 z m 8.41449,-3.91388 c 0.67303,-0.44595 1.58546,-1.56756 2.08064,-2.55764 0.7916,-1.58273 0.87797,-2.16392 0.84308,-5.67318 -0.0214,-2.15039 -0.23262,-4.769767 -0.46944,-5.820833 -0.74712,-3.315952 -2.21774,-8.213439 -2.85139,-9.495754 -0.33557,-0.679097 -1.20817,-2.539679 -1.93911,-4.134626 -0.73167,-1.596541 -1.48732,-2.802043 -1.68127,-2.682172 -0.21943,0.135614 -0.27532,1.577085 -0.14819,3.821987 0.21853,3.858975 0.0445,4.405922 -1.40223,4.405922 -1.04259,0 -1.10583,-0.350453 -1.28061,-7.096865 l -0.14272,-5.509369 -1.31587,-2.428131 c -1.63802,-3.022596 -6.18237,-9.090571 -6.91078,-9.227808 -0.33889,-0.06385 -0.81769,0.463296 -1.27934,1.408539 -0.40576,0.83082 -3.11629,5.63808 -6.0234,10.682802 -2.90711,5.044721 -5.97062,10.362846 -6.8078,11.818054 -0.83718,1.455209 -2.19595,3.677708 -3.01949,4.938889 -2.36708,3.624989 -2.38701,3.505965 0.98795,5.899095 11.35925,8.05465 20.88637,12.16964 28.71414,12.40233 0.96681,0.0287 1.845,-0.22061 2.64583,-0.75124 z m -85.60982,-3.99344 c 0.60161,-0.60162 0.73139,-1.20952 0.25821,-1.20952 -0.16288,0 -0.47698,0.39687 -0.69799,0.88194 -0.46407,1.01851 -0.34204,1.10939 0.43978,0.32758 z m 8.78895,-0.85747 c 0.34408,-0.58248 0.52769,-1.21748 0.40802,-1.41111 -0.40797,-0.6601 -2.99817,-0.31137 -2.99817,0.40365 0,0.57148 1.12282,2.06652 1.55202,2.06652 0.22689,0 0.69405,-0.47658 1.03813,-1.05906 z m -3.2957,-3.68497 c 2.12193,-0.48413 2.16142,-0.50942 0.52917,-0.33899 -4.73782,0.4947 -5.46806,0.62097 -5.46806,0.94549 0,0.38308 1.30273,0.22311 4.93889,-0.6065 z m 10.67824,-1.83737 c -0.23884,-0.0966 -0.71509,-0.10252 -1.05833,-0.0131 -0.34325,0.0894 -0.14783,0.16851 0.43426,0.1757 0.58208,0.007 0.86291,-0.066 0.62407,-0.16263 z m 2.72731,-0.41306 c 0,-0.16042 -0.47625,-0.22178 -1.05833,-0.13635 -0.58208,0.0854 -1.05833,0.21669 -1.05833,0.29168 0,0.075 0.47625,0.13635 1.05833,0.13635 0.58208,0 1.05833,-0.13125 1.05833,-0.29168 z m -7.23194,-1.11277 c 2.52236,-0.40514 5.30049,-0.853067 6.17361,-0.995398 l 1.5875,-0.258781 -0.0121,-4.050548 c -0.0184,-6.163634 -1.07648,-8.767733 -3.80597,-9.36723 -0.61643,-0.135389 -1.34148,-0.561259 -1.61123,-0.946376 -0.4722,-0.674151 -0.5083,-0.65775 -0.97015,0.440676 -0.60325,1.434702 -0.59942,1.53409 0.0495,1.285089 0.85995,-0.329996 0.63004,0.235567 -1.28833,3.169115 -1.76848,2.704327 -2.86706,5.014891 -3.26153,6.859724 -0.10648,0.497989 -0.57246,1.108192 -1.03551,1.356004 -0.9181,0.491352 -2.1395,2.694465 -1.79912,3.245195 0.11655,0.1886 0.47637,0.26555 0.79959,0.17102 0.32322,-0.0945 2.65142,-0.50336 5.17378,-0.90849 z m 38.89385,-5.326835 c 0.53352,-0.985817 2.16547,-3.644879 3.62656,-5.909028 1.46109,-2.264145 3.82783,-6.259755 5.25941,-8.87913 1.43158,-2.619375 4.00645,-7.192606 5.72194,-10.16273 1.71549,-2.970127 3.11907,-5.672013 3.11907,-6.004189 0,-0.602392 -3.41412,-4.092218 -10.00588,-10.227746 l -3.47948,-3.238666 h -2.93351 c -2.23084,0 -3.07007,-0.13656 -3.50362,-0.570113 -0.88524,-0.885233 -0.46377,-1.344599 1.52549,-1.662684 l 1.82938,-0.292524 -2.03494,-1.592802 c -2.47505,-1.937287 -2.61038,-1.991382 -6.79744,-2.717067 -1.84326,-0.319468 -4.62139,-0.815031 -6.17361,-1.101252 -1.55222,-0.28622 -5.4416,-0.9329 -8.64306,-1.437065 -3.20145,-0.504166 -6.75648,-1.151641 -7.90006,-1.438835 -1.14358,-0.287194 -2.71037,-0.530881 -3.48175,-0.541527 -0.88194,-0.01217 -1.64876,-0.265593 -2.06591,-0.682743 -0.74451,-0.74451 -0.79014,-0.975204 -0.33514,-1.694107 0.26958,-0.425929 0.97356,-0.360079 4.66891,0.436726 2.3933,0.516053 5.30396,1.091957 6.46812,1.279786 1.16417,0.187828 4.49792,0.758126 7.40833,1.267329 6.29657,1.101641 8.29028,1.375018 8.29028,1.136764 0,-0.305708 -8.16726,-5.043979 -10.93611,-6.344632 -5.08338,-2.387891 -9.36795,-3.477831 -13.40555,-3.4102 -3.12301,0.05231 -3.6373,0.30789 -4.20562,2.090037 -1.37705,4.318122 1.88124,15.382165 8.42758,28.617264 2.02187,4.087713 8.19351,12.762811 13.72861,19.297469 1.86587,2.202804 3.99209,4.742804 4.72494,5.644444 1.65355,2.034377 9.49642,9.929617 9.86375,9.929617 0.1481,0 0.70579,-0.806577 1.23931,-1.792396 z m -40.50904,-3.587464 c 0.43494,-0.727604 0.70046,-1.322917 0.59005,-1.322917 -0.23751,0 -1.97347,2.693613 -1.97347,3.062157 0,0.372431 0.48755,-0.240514 1.38342,-1.73924 z m 4.6138,-9.084027 c -0.37287,-0.696715 -1.05833,-0.970901 -1.05833,-0.423334 0,0.371006 0.76621,1.128889 1.1413,1.128889 0.16205,0 0.12471,-0.3175 -0.083,-0.705555 z M 223.6367,47.937803 c -0.11332,-1.018645 -0.39149,-4.312708 -0.61817,-7.320138 -0.42728,-5.669008 -0.70884,-6.69545 -1.62749,-5.933037 -0.28209,0.234114 -1.1702,0.513884 -1.97357,0.62171 -1.36144,0.182732 -1.52372,0.327865 -2.38875,2.136327 -1.54123,3.222142 -1.54165,3.203631 0.11633,5.166381 0.8256,0.977374 2.52909,2.992899 3.78551,4.47894 1.25642,1.486045 2.42565,2.701901 2.59829,2.701901 0.17263,0 0.22117,-0.833438 0.10785,-1.852084 z m -1.28638,-15.413861 c 0,-1.684934 -2.71914,-5.142907 -5.19292,-6.603919 -1.84222,-1.088016 -2.42356,-0.840556 -1.63212,0.694747 1.1,2.133864 5.52785,6.583164 6.56046,6.592237 0.14552,0.0014 0.26458,-0.306101 0.26458,-0.683065 z m -6.41149,-3.169578 c -1.53277,-1.831234 -1.75786,-1.17173 -0.24991,0.732215 0.63726,0.804608 1.21817,1.284397 1.2909,1.066197 0.0727,-0.218197 -0.39571,-1.027483 -1.04099,-1.798412 z"
             id="path834"
             inkscape:connector-curvature="0" />
        </g>
        <path
           id="path15"
           d="m 381.82406,4.6777475 c -2.77721,0.014491 -5.55223,0.098434 -8.29764,0.227376 L 94.042936,89.634318 89.955787,84.926078 345.82999,7.3540697 c -8.24972,1.022692 -16.40244,2.3017367 -24.42423,3.8318073 -2.55198,0.486834 -5.08906,0.999387 -7.6112,1.537374 -3.80561,0.8061 -7.57667,1.671434 -11.31362,2.595707 -15.22242,3.75973 -30.95984,8.553712 -47.1538,7.066752 -7.84849,-0.72231 -15.22253,-2.910143 -23.08894,-3.561023 -5.52077,-0.428703 -11.13125,-0.192982 -16.49386,0.692981 -2.59618,0.410502 -5.13966,0.929609 -7.6112,1.553394 -5.57061,1.431286 -10.87096,3.204936 -15.81354,5.291666 -11.86452,4.900091 -22.51111,10.974789 -35.00244,15.218709 -13.7718,4.680471 -29.01658,6.905394 -44.54793,8.564334 -2.5311,0.269875 -5.13304,1.393738 -7.6112,0.772565 C 87.555502,46.506101 71.774818,27.760183 52.763793,33.881059 -55.962131,46.32501 -2.1379088,105.54493 14.591774,166.10886 c 26.715796,-1.80268 56.290172,2.18639 80.542476,-1.22642 3.348919,-0.4736 6.6839,-0.98444 10.0194,-1.51361 2.53857,-0.40215 5.07712,-0.81754 7.61121,-1.23558 17.5192,-2.8866 34.99335,-5.95842 53.10354,-6.87917 1.75207,-0.0899 3.50285,-0.15856 5.25194,-0.20619 3.46532,-0.0952 6.93099,-0.11648 10.39632,-0.0636 8.92649,0.14816 17.82186,0.68951 26.6121,1.61954 2.54304,0.2593 5.08013,0.54675 7.6112,0.86248 10.93329,1.34673 21.75458,3.14296 32.42371,5.12734 2.1759,0.40569 4.34907,0.81836 6.51901,1.23816 4.88908,0.94456 9.77784,1.90765 14.67587,2.84428 14.62247,2.79664 29.31658,5.36049 44.43601,6.39237 1.29539,0.0864 2.59066,0.16345 3.88605,0.23048 1.24018,0.0635 2.48498,0.11385 3.72515,0.15089 23.48277,0.74083 47.23423,-2.60621 68.05311,-9.45627 2.58483,-0.85019 5.1219,-1.75337 7.61121,-2.70939 3.4534,-1.3282 6.80069,-2.75727 10.04218,-4.28656 6.64413,-3.13531 12.86319,-6.70423 17.60003,-10.99313 4.61596,-4.17776 7.61104,-8.86887 9.33474,-13.80071 0.094,-0.26458 0.18349,-0.52916 0.26408,-0.79375 1.35224,-4.25587 1.74844,-8.67638 1.39824,-13.08809 l -293.33915,5.80017 -0.40573,-7.17786 292.53902,-5.78415 c -0.36395,-1.42174 -0.79305,-2.83303 -1.28894,-4.22661 -0.29997,-0.83608 -0.61746,-1.67487 -0.94877,-2.51096 -0.1031,-0.26458 -0.21086,-0.52916 -0.3183,-0.79375 -3.0624,-7.543271 -6.9758,-15.065335 -5.95499,-22.777937 0.12978,-0.971023 0.33647,-1.934144 0.6051,-2.886644 0.0762,-0.26458 0.152,-0.529169 0.23699,-0.79375 1.99684,-6.291788 6.53652,-12.260955 9.25866,-18.491895 0.31298,-0.820102 0.5952,-1.644198 0.84646,-2.471682 l -310.12332,48.115448 -3.8983,-8.774142 316.04598,-49.034215 c 0.47773,-8.034164 -1.92723,-16.037115 -7.0568,-23.482804 -2.86988,-4.08781 -6.63511,-8.006061 -11.90476,-11.011731 -6.42027,-3.6618297 -14.39443,-5.6594434 -22.93242,-6.6145834 -2.51686,-0.2771708 -5.05785,-0.4714294 -7.61121,-0.5818764 -2.53015,-0.1150914 -5.08269,-0.1585285 -7.63481,-0.1452107 z"
           style="opacity:0.1;fill:#1c3ed3;stroke-width:0.34417826"
           inkscape:connector-curvature="0"
           sodipodi:nodetypes="sccccccccccccccscccccccccccccccccccccccccccccccccccccccccs" />
      </g>
    </g>
  </g>
</svg>
